<?xml version="1.0" encoding="utf-8"?>
<!-- Svg Vector Icons : http://www.onlinewebfonts.com/icon -->
<!DOCTYPE svg PUBLIC "-//W3C//DTD SVG 1.1//EN" "http://www.w3.org/Graphics/SVG/1.1/DTD/svg11.dtd">
<svg version="1.1" xmlns="http://www.w3.org/2000/svg" xmlns:xlink="http://www.w3.org/1999/xlink" x="0px" y="0px" viewBox="0 0 256 256" enable-background="new 0 0 256 256" xml:space="preserve">
<metadata> Svg Vector Icons : http://www.onlinewebfonts.com/icon </metadata>
<g><g><path fill="#000000" d="M215,95.7c3.6,10.1,5.6,21,5.6,32.3c0,53.4-43.4,96.8-96.8,96.8S26.9,181.4,26.9,128c0-53.4,43.4-96.8,96.8-96.8c16.6,0,32.2,4.2,45.8,11.5l13.7-11.6c-4.9-3-9.9-5.6-15.2-7.9c-14-5.9-28.9-8.9-44.3-8.9c-15.3,0-30.2,3-44.3,8.9C65.9,29,53.8,37.1,43.3,47.6C32.9,58,24.7,70.2,18.9,83.7C13,97.8,10,112.7,10,128s3,30.2,8.9,44.3c5.7,13.5,13.9,25.7,24.4,36.1c10.5,10.5,22.6,18.6,36.1,24.4c14,5.9,28.9,8.9,44.3,8.9s30.2-3,44.3-8.9c13.5-5.7,25.7-13.9,36.1-24.4c10.5-10.4,18.6-22.6,24.4-36.1c5.9-14,8.9-28.9,8.9-44.3c0-15.2-2.9-30-8.8-43.9L215,95.7z"/><path fill="#000000" d="M123.7,57.2c-18.9,0-36.7,7.4-50.1,20.7C60.3,91.3,52.9,109.1,52.9,128c0,18.9,7.4,36.7,20.7,50c13.4,13.4,31.1,20.7,50.1,20.7c18.9,0,36.7-7.4,50-20.7s20.7-31.1,20.7-50c0-5.8-0.7-11.5-2-17c-0.1,0-0.1,0-0.2,0l0,0c-0.9,0-1.8-0.1-2.7-0.3l-11.3-1.6l-3.1,2.6c1.6,5.1,2.5,10.6,2.5,16.2c0,29.7-24.2,53.9-53.9,53.9S69.8,157.7,69.8,128c0-29.7,24.2-53.9,53.9-53.9c8.4,0,16.3,1.9,23.4,5.3l3.5-3l-0.1-11.3c0-0.9,0-1.8,0.2-2.6C142.3,59,133.2,57.2,123.7,57.2z"/><path fill="#000000" d="M245.8,46.6c-0.5-1.8-2-3.1-3.8-3.4l-16.7-2.5l0.2-17c0-1.8-1-3.5-2.7-4.3c-1.7-0.8-3.6-0.5-5,0.7l-51.5,43.6c-1,0.9-1.6,2.2-1.7,3.5l-0.2,15.6L134.5,108c-3.2-1.7-6.9-2.7-10.8-2.7c-12.5,0-22.7,10.2-22.7,22.7c0,12.5,10.2,22.7,22.7,22.7s22.7-10.2,22.7-22.7c0-3.4-0.7-6.6-2.1-9.5l29.3-24.8l15.4,2.4c1.3,0.2,2.7-0.2,3.8-1.1l51.5-43.6C245.7,50.2,246.3,48.3,245.8,46.6z"/></g></g>
</svg>